<svg width="32" height="32" viewBox="0 0 64 64" fill="none" xmlns="http://www.w3.org/2000/svg">
<circle cx="32" cy="32" r="32" fill="#BDBDBD"/>
<path d="M22.7259 11.1181C30.4029 6.97063 40.4993 8.46991 46.5277 14.7997C49.4595 17.8382 51.4111 21.8437 51.8299 26.0488C52.1373 33.2081 51.9368 40.4029 51.9235 47.5711C51.968 49.2522 52.0883 53.9585 49.2724 52.1709C48.0248 50.96 47.0891 49.4163 45.6901 48.3739C44.6074 47.4158 43.3776 48.1743 42.5979 49.1724C41.9384 49.993 41.2612 50.8136 40.5349 51.5765C39.8176 52.304 38.7304 52.8673 37.7101 52.4326C36.0526 51.6386 35.362 49.7934 33.9896 48.6578C32.1495 47.021 30.2826 48.3739 29.2355 50.1349C26.2102 55.0143 24.4992 51.5721 21.9773 48.6046C20.9347 47.3448 19.3975 48.1655 18.4128 49.0482C17.1697 50.1039 16.2385 51.4967 14.9241 52.4548C13.9795 52.9428 12.9725 52.0112 12.8032 51.1108C11.8854 43.1087 12.6473 34.9425 12.4557 26.8871C12.8656 20.3045 16.8801 14.2009 22.7259 11.1181ZM48.0872 30.3603C50.4977 27.9296 49.816 23.5958 46.7772 22.0123C42.7093 19.7323 37.7457 23.5958 39.0378 28.0804C39.9468 32.0238 45.4005 33.3988 48.0872 30.3603ZM23.1358 29.1627C24.8155 32.6802 30.0999 32.9819 32.2609 29.7793C34.6446 26.5855 32.4391 21.7372 28.4781 21.3913C24.2319 20.8944 21.1397 25.4145 23.1358 29.1627ZM22.4452 11.9298C30.6301 7.08596 40.9894 9.14858 47.1426 16.2192C39.8978 6.71335 24.4769 6.71779 17.2187 16.2147C17.6643 15.8865 17.994 15.3852 18.3727 14.9727C19.647 13.8194 20.9481 12.8125 22.4452 11.9298ZM16.987 16.4764C16.9425 16.5252 16.8935 16.5652 16.8578 16.6228C16.8445 16.6406 16.8712 16.6849 16.8801 16.7204C16.9336 16.6627 16.996 16.6051 17.0494 16.543C17.0583 16.5297 17.0227 16.4853 16.987 16.4764ZM47.4634 16.6539C47.4723 16.6583 47.4812 16.6627 47.4901 16.6716C47.4901 16.6583 47.4901 16.645 47.4634 16.6539Z" fill="#EB5757"/>
<path d="M43.8544 26.6568C43.9613 23.2102 49.0852 23.5739 48.7511 27.0028C48.359 30.0279 43.7608 29.7618 43.8544 26.6568Z" fill="#333333"/>
<path d="M30.042 29.1405C27.5424 29.2869 26.5443 25.8226 28.683 24.5806C32.3411 22.6599 34.2302 28.7369 30.042 29.1405Z" fill="#333333"/>
</svg>
